HIERARCHY
ROOT Hips
{
	OFFSET -0.09297 91.81560 -12.71420
	CHANNELS 6 Xposition Yposition Zposition Zrotation Xrotation Yrotation
	JOINT Spine
	{
		OFFSET 0.00000 14.09320 -1.51142
		CHANNELS 3 Zrotation Xrotation Yrotation
		JOINT Spine1
		{
			OFFSET 0.00000 8.69660 0.00000
			CHANNELS 3 Zrotation Xrotation Yrotation
			JOINT Spine2
			{
				OFFSET 0.00000 8.69660 0.00000
				CHANNELS 3 Zrotation Xrotation Yrotation
				JOINT Spine3
				{
					OFFSET 0.00000 8.69660 0.00000
					CHANNELS 3 Zrotation Xrotation Yrotation
					JOINT Neck
					{
						OFFSET 0.00000 11.18130 1.11813
						CHANNELS 3 Zrotation Xrotation Yrotation
						JOINT Neck1
						{
							OFFSET 0.00000 5.70631 0.00000
							CHANNELS 3 Zrotation Xrotation Yrotation
							JOINT Head
							{
								OFFSET 0.00000 5.70631 0.00000
								CHANNELS 3 Zrotation Xrotation Yrotation
								End site
								{
									OFFSET 0.00000 9.71257 0.00000
								}
							}
						}
					}
					JOINT RightShoulder
					{
						OFFSET 0.00000 7.98668 5.19711
						CHANNELS 3 Zrotation Xrotation Yrotation
						JOINT RightArm
						{
							OFFSET 0.00000 18.31580 0.00000
							CHANNELS 3 Zrotation Xrotation Yrotation
							JOINT RightForeArm
							{
								OFFSET 0.00000 28.87420 0.00000
								CHANNELS 3 Zrotation Xrotation Yrotation
								JOINT RightHand
								{
									OFFSET 0.00000 23.87720 0.00000
									CHANNELS 3 Zrotation Xrotation Yrotation
									JOINT RightHandThumb1
									{
										OFFSET -2.41094 4.67063 3.47303
										CHANNELS 3 Zrotation Xrotation Yrotation
										JOINT RightHandThumb2
										{
											OFFSET 0.00000 3.95207 0.00000
											CHANNELS 3 Zrotation Xrotation Yrotation
											JOINT RightHandThumb3
											{
												OFFSET 0.00000 2.15568 0.00000
												CHANNELS 3 Zrotation Xrotation Yrotation
												End site
												{
													OFFSET 0.00000 1.91616 0.00000
												}
											}
										}
									}
									JOINT RightHandIndex1
									{
										OFFSET 0.00000 12.45500 2.51496
										CHANNELS 3 Zrotation Xrotation Yrotation
										JOINT RightHandIndex2
										{
											OFFSET 0.00000 4.79039 0.00000
											CHANNELS 3 Zrotation Xrotation Yrotation
											JOINT RightHandIndex3
											{
												OFFSET 0.00000 2.63472 0.00000
												CHANNELS 3 Zrotation Xrotation Yrotation
												End site
												{
													OFFSET 0.00000 1.91616 0.00000
												}
											}
										}
									}
									JOINT RightHandMiddle1
									{
										OFFSET 0.00000 12.45500 -0.07984
										CHANNELS 3 Zrotation Xrotation Yrotation
										JOINT RightHandMiddle2
										{
											OFFSET 0.00000 5.38919 0.00000
											CHANNELS 3 Zrotation Xrotation Yrotation
											JOINT RightHandMiddle3
											{
												OFFSET 0.00000 3.11376 0.00000
												CHANNELS 3 Zrotation Xrotation Yrotation
												End site
												{
													OFFSET 0.00000 2.03592 0.00000
												}
											}
										}
									}
									JOINT RightHandRing1
									{
										OFFSET 0.00000 11.07780 -2.67464
										CHANNELS 3 Zrotation Xrotation Yrotation
										JOINT RightHandRing2
										{
											OFFSET 0.00000 4.91015 0.00000
											CHANNELS 3 Zrotation Xrotation Yrotation
											JOINT RightHandRing3
											{
												OFFSET 0.00000 3.11376 0.00000
												CHANNELS 3 Zrotation Xrotation Yrotation
												End site
												{
													OFFSET 0.00000 2.03592 0.00000
												}
											}
										}
									}
									JOINT RightHandPinky1
									{
										OFFSET 0.00000 9.70055 -5.26943
										CHANNELS 3 Zrotation Xrotation Yrotation
										JOINT RightHandPinky2
										{
											OFFSET 0.00000 3.95207 0.00000
											CHANNELS 3 Zrotation Xrotation Yrotation
											JOINT RightHandPinky3
											{
												OFFSET 0.00000 2.15568 0.00000
												CHANNELS 3 Zrotation Xrotation Yrotation
												End site
												{
													OFFSET 0.00000 1.91616 0.00000
												}
											}
										}
									}
								}
							}
						}
					}
					JOINT LeftShoulder
					{
						OFFSET 0.00000 7.98668 5.19711
						CHANNELS 3 Zrotation Xrotation Yrotation
						JOINT LeftArm
						{
							OFFSET 0.00000 18.31580 0.00000
							CHANNELS 3 Zrotation Xrotation Yrotation
							JOINT LeftForeArm
							{
								OFFSET 0.00000 28.87420 0.00000
								CHANNELS 3 Zrotation Xrotation Yrotation
								JOINT LeftHand
								{
									OFFSET 0.00000 23.87720 0.00000
									CHANNELS 3 Zrotation Xrotation Yrotation
									JOINT LeftHandThumb1
									{
										OFFSET 2.41094 4.67063 3.47303
										CHANNELS 3 Zrotation Xrotation Yrotation
										JOINT LeftHandThumb2
										{
											OFFSET 0.00000 3.95207 0.00000
											CHANNELS 3 Zrotation Xrotation Yrotation
											JOINT LeftHandThumb3
											{
												OFFSET 0.00000 2.15568 0.00000
												CHANNELS 3 Zrotation Xrotation Yrotation
												End site
												{
													OFFSET 0.00000 1.60000 0.00000
												}
											}
										}
									}
									JOINT LeftHandIndex1
									{
										OFFSET 0.00000 12.45500 2.51496
										CHANNELS 3 Zrotation Xrotation Yrotation
										JOINT LeftHandIndex2
										{
											OFFSET 0.00000 4.79039 0.00000
											CHANNELS 3 Zrotation Xrotation Yrotation
											JOINT LeftHandIndex3
											{
												OFFSET 0.00000 2.63472 0.00000
												CHANNELS 3 Zrotation Xrotation Yrotation
												End site
												{
													OFFSET 0.00000 1.91616 0.00000
												}
											}
										}
									}
									JOINT LeftHandMiddle1
									{
										OFFSET 0.00000 12.45500 -0.07984
										CHANNELS 3 Zrotation Xrotation Yrotation
										JOINT LeftHandMiddle2
										{
											OFFSET 0.00000 5.38919 0.00000
											CHANNELS 3 Zrotation Xrotation Yrotation
											JOINT LeftHandMiddle3
											{
												OFFSET 0.00000 3.11376 0.00000
												CHANNELS 3 Zrotation Xrotation Yrotation
												End site
												{
													OFFSET 0.00000 2.03592 0.00000
												}
											}
										}
									}
									JOINT LeftHandRing1
									{
										OFFSET 0.00000 11.07780 -2.67464
										CHANNELS 3 Zrotation Xrotation Yrotation
										JOINT LeftHandRing2
										{
											OFFSET 0.00000 4.91015 0.00000
											CHANNELS 3 Zrotation Xrotation Yrotation
											JOINT LeftHandRing3
											{
												OFFSET 0.00000 3.11376 0.00000
												CHANNELS 3 Zrotation Xrotation Yrotation
												End site
												{
													OFFSET 0.00000 2.03592 0.00000
												}
											}
										}
									}
									JOINT LeftHandPinky1
									{
										OFFSET 0.00000 9.70055 -5.26943
										CHANNELS 3 Zrotation Xrotation Yrotation
										JOINT LeftHandPinky2
										{
											OFFSET 0.00000 3.95207 0.00000
											CHANNELS 3 Zrotation Xrotation Yrotation
											JOINT LeftHandPinky3
											{
												OFFSET 0.00000 2.15568 0.00000
												CHANNELS 3 Zrotation Xrotation Yrotation
												End site
												{
													OFFSET 0.00000 1.91616 0.00000
												}
											}
										}
									}
								}
							}
						}
					}
				}
			}
		}
	}
	JOINT RightUpLeg
	{
		OFFSET -10.06560 0.00000 0.00000
		CHANNELS 3 Zrotation Xrotation Yrotation
		JOINT RightLeg
		{
			OFFSET 0.00000 -42.98740 0.00000
			CHANNELS 3 Zrotation Xrotation Yrotation
			JOINT RightFoot
			{
				OFFSET 0.00000 -44.62500 0.00000
				CHANNELS 3 Zrotation Xrotation Yrotation
				JOINT RightForeFoot
				{
					OFFSET 0.00000 -3.74821 0.00000
					CHANNELS 3 Zrotation Xrotation Yrotation
					JOINT RightToeBase
					{
						OFFSET 0.00000 0.00000 14.67920
						CHANNELS 3 Zrotation Xrotation Yrotation
						End site
						{
							OFFSET 0.00000 0.00000 10.36040
						}
					}
				}
			}
		}
	}
	JOINT LeftUpLeg
	{
		OFFSET 10.06560 0.00000 0.00000
		CHANNELS 3 Zrotation Xrotation Yrotation
		JOINT LeftLeg
		{
			OFFSET 0.00000 -42.98740 0.00000
			CHANNELS 3 Zrotation Xrotation Yrotation
			JOINT LeftFoot
			{
				OFFSET 0.00000 -44.62500 0.00000
				CHANNELS 3 Zrotation Xrotation Yrotation
				JOINT LeftForeFoot
				{
					OFFSET 0.00000 -3.74821 0.00000
					CHANNELS 3 Zrotation Xrotation Yrotation
					JOINT LeftToeBase
					{
						OFFSET 0.00000 0.00000 14.67920
						CHANNELS 3 Zrotation Xrotation Yrotation
						End site
						{
							OFFSET 0.00000 0.00000 10.67280
						}
					}
				}
			}
		}
	}
}
MOTION
Frames: 4
Frame Time: 0.016667
4.13887 92.1314 58.2885 -6.97728 7.80759 -176.122 -3.97612 7.79814 -0.399413 -1.79075 6.69891 0.682822 -1.04431 2.81429 -0.245291 3.416 1.89478 -1.19241 -1.3141 7.91757 -0.18896 -0.943735 -5.19503 -4.78705 -0.44708 -19.1196 -0.355404 103.735 -14.5049 3.50335 57.8033 11.8103 -30.4911 0.00269993 28.0077 -11.1937 8.19449 -4.82004 -0.000877292 -2.38684 4.84786 0.201824 -1.59028e-15 0.0 3.18055e-15 -3.18055e-15 6.36111e-15 3.18055e-15 4.15954 -4.77083e-15 -3.18055e-15 7.95139e-16 0.0 -3.18055e-15 7.95139e-16 0.0 -3.18055e-15 12.1951 -6.36111e-15 -6.36111e-15 -1.59028e-15 -3.97569e-15 -3.18055e-15 -2.38542e-15 0.0 3.18055e-15 18.091 -5.1684e-15 -6.36111e-15 2.38542e-15 1.98785e-15 -0.0 -1.19271e-15 -3.97569e-16 3.18055e-15 37.0196 -7.15625e-15 -1.27222e-14 -7.95139e-16 0.0 3.18055e-15 9.54166e-15 -2.38542e-15 3.18055e-15 -103.946 -12.2856 -3.02492 -63.0756 5.91588 31.106 -0.000167222 31.2096 21.0235 -14.2053 -1.45768 0.000108887 2.70434 11.8467 -0.555558 1.76556e-31 -1.59028e-15 6.36111e-15 1.59028e-15 -3.18055e-15 -0.0 -2.91242 1.59028e-15 -6.36111e-15 1.76556e-31 3.18055e-15 -3.18055e-15 1.32417e-31 2.38542e-15 -3.18055e-15 -12.9985 1.88845e-15 -0.0 -1.09332e-15 1.39149e-15 6.36111e-15 -1.39149e-15 5.96354e-16 -6.36111e-15 -18.6344 1.98785e-15 -0.0 -3.97569e-15 -3.97569e-16 9.54166e-15 -1.59028e-15 -3.97569e-16 3.18055e-15 -34.5048 0.0 -0.0 -1.59028e-15 -1.59028e-15 -0.0 1.59028e-15 3.18055e-15 -0.0 -2.15113 3.6978 -7.8825 1.50063e-15 12.6849 2.4451e-15 -9.00581 -14.2582 -17.2565 -1.19271e-15 0.0 3.18055e-15 5.30024e-16 11.7695 3.24886e-15 -5.39757 -1.16964 14.4957 3.60442e-16 21.1401 3.41005e-15 2.59232 -7.06254 -6.48941 -1.98785e-16 0.0 -0.0 -6.43645e-17 -4.83151 1.59595e-15
3.84068 92.3071 58.2185 -6.81743 7.40324 -176.94 -4.88221 7.1107 -0.360536 -1.91103 6.78267 0.742174 -1.11438 3.09871 0.382874 3.61565 1.96851 -1.19475 -1.51723 7.64182 0.131133 -1.25971 -5.43602 -5.6955 -0.610647 -19.2354 -0.4057 103.417 -13.3024 3.14163 58.3578 14.495 -54.1285 1.55009e-08 54.2872 2.98324 10.4331 -6.9882 -3.20436e-15 -4.94167 9.53628 0.820677 3.18055e-15 -9.54166e-15 -1.27222e-14 3.18055e-15 -6.36111e-15 -6.36111e-15 37.2926 8.74653e-15 -3.18055e-15 1.59028e-15 7.95139e-15 -6.36111e-15 -0.0 -7.95139e-16 -0.0 37.2926 1.11319e-14 -0.0 1.76556e-31 3.18055e-15 -3.18055e-15 -1.59028e-15 -3.18055e-15 -3.18055e-15 28.6337 1.51076e-14 -6.36111e-15 -3.57812e-15 9.93923e-16 6.36111e-15 -3.18055e-15 3.18055e-15 3.18055e-15 -5.29669e-31 4.77083e-15 6.36111e-15 -3.53113e-31 6.36111e-15 3.18055e-15 3.18055e-15 4.77083e-15 6.36111e-15 -103.756 -11.33 -2.75361 -61.4735 7.70195 41.7857 8.67823e-09 55.4682 17.092 -14.1067 -0.919327 -3.18096e-15 6.10029 10.8741 -1.15504 -3.18055e-15 6.36111e-15 -0.0 0.0 6.36111e-15 -0.0 -38.1952 -5.56597e-15 -1.27222e-14 1.59028e-15 -7.15625e-15 3.18055e-15 6.36111e-15 -3.97569e-15 -3.18055e-15 -47.5523 -3.97569e-15 -1.27222e-14 -6.36111e-15 -5.56597e-15 -0.0 -0.0 -1.27222e-14 -0.0 -41.1879 5.56597e-15 -1.27222e-14 -3.18055e-15 5.56597e-15 -0.0 -3.18055e-15 -7.95139e-16 -0.0 -43.2018 7.15625e-15 -9.54166e-15 4.77083e-15 1.19271e-14 -6.36111e-15 3.18055e-15 -9.54166e-15 -3.18055e-15 -2.30258 4.5129 -8.98658 0.0 10.1307 -0.0 -7.8702 -13.5366 -15.1154 7.95139e-16 7.95139e-16 3.18055e-15 5.33028e-16 11.7176 3.24825e-15 -5.81507 -0.152313 15.278 5.34011e-16 18.3714 3.35136e-15 2.79735 -6.43519 -6.34078 -8.82781e-32 1.59028e-15 3.18055e-15 1.77914e-16 -3.32659 4.77888e-15
3.79083 92.3145 58.0962 -6.80695 7.64159 -177.282 -4.84453 7.05575 -0.439327 -1.94745 6.82085 0.764314 -1.20954 3.19322 0.530047 3.63864 1.99725 -1.18364 -1.4706 7.73385 -0.0522232 -1.31099 -5.44662 -6.10754 -0.607127 -19.2642 -0.433269 102.585 -13.7858 3.04494 55.511 14.9544 -55.247 -0.0305529 68.2863 12.2289 14.0988 -7.61764 2.18675e-05 -6.36857 11.7763 1.34681 -6.36111e-15 0.0 -3.18055e-15 -6.36111e-15 -3.18055e-15 -3.18055e-15 49.6207 6.36111e-15 9.54166e-15 6.36111e-15 4.77083e-15 -6.36111e-15 -3.18055e-15 -3.18055e-15 -6.36111e-15 57.9236 7.95139e-15 1.59028e-14 3.18055e-15 -3.18055e-15 3.18055e-15 -1.76556e-31 1.59028e-15 6.36111e-15 50.0269 6.36111e-15 1.27222e-14 -3.18055e-15 0.0 -3.18055e-15 -0.0 -7.95139e-15 -0.0 38.3897 0.0 9.54166e-15 -1.59028e-15 7.95139e-16 3.18055e-15 -4.77083e-15 7.95139e-15 3.18055e-15 -102.912 -11.7232 -2.66646 -59.6091 7.80656 43.9949 -0.422825 68.6576 7.95742 -16.7566 2.48079 -0.00813512 9.00246 15.8995 -2.49749 6.36111e-15 7.95139e-16 3.18055e-15 6.36111e-15 0.0 -0.0 -62.411 6.36111e-15 -1.90833e-14 -3.18055e-15 0.0 3.18055e-15 -3.18055e-15 6.36111e-15 -0.0 -72.2687 1.59028e-14 -2.38542e-14 3.18055e-15 -3.18055e-15 -0.0 6.36111e-15 -1.59028e-15 -0.0 -59.3256 1.59028e-15 -2.54444e-14 -3.18055e-15 -1.59028e-15 -3.18055e-15 3.18055e-15 -6.36111e-15 -9.54166e-15 -56.3829 2.38542e-15 -2.22639e-14 -0.0 -3.97569e-15 -0.0 -3.08973e-31 -5.56597e-15 -3.18055e-15 -2.35839 4.83673 -8.95219 -1.62348e-15 10.0444 1.61503e-15 -7.75448 -13.5698 -14.7435 -3.97569e-16 -7.95139e-16 -0.0 5.35322e-16 11.678 3.24778e-15 -5.86949 0.220815 15.4465 2.54093e-16 18.2572 -3.34915e-15 2.98212 -6.45789 -6.11141 3.97569e-16 0.0 -1.59028e-15 2.98177e-16 -3.40879 -0.0
3.98313 92.3299 57.8469 -7.12121 9.15939 -177.422 -6.42362 9.18509 0.651086 -1.18933 6.30762 0.445857 -0.115183 1.92611 -0.528724 3.28961 2.43318 -1.15204 -1.33648 8.12403 -0.761892 -1.61218 -5.17146 -7.50513 -0.747734 -19.0913 -0.513235 101.365 -15.0075 2.97908 49.9692 15.052 -49.0329 179.856 80.6629 -160.297 16.9924 -7.8515 0.000373462 -13.8144 25.926 6.14083 -6.20706e-32 1.78906e-15 1.98785e-15 3.18055e-15 3.97569e-16 -3.97569e-16 85.3522 2.70347e-14 2.70347e-14 -6.36111e-15 -1.59028e-15 2.38542e-15 3.18055e-15 0.0 -0.0 85.3522 2.70347e-14 2.94201e-14 6.36111e-15 0.0 -0.0 6.62086e-32 -1.59028e-15 2.38542e-15 65.2517 1.98785e-14 2.70347e-14 -3.18055e-15 -3.97569e-15 4.77083e-15 3.18055e-15 -7.95139e-16 -0.0 3.18055e-15 -7.95139e-16 -1.59028e-15 3.18055e-15 3.18055e-15 -1.59028e-15 3.18055e-15 -2.38542e-15 -0.0 -101.171 -12.9187 -2.52788 -56.9448 9.00053 43.8994 -179.42 80.8774 175.511 -22.0642 -1.20711 -0.0090323 39.0918 38.54 -26.9671 3.18055e-15 3.18055e-15 -1.59028e-15 0.0 0.0 -0.0 -53.8441 1.5704e-14 -3.20043e-14 6.36111e-15 -6.95746e-16 -7.95139e-16 6.36111e-15 1.88845e-15 2.18663e-15 -53.844 1.45113e-14 -3.27995e-14 -3.18055e-15 -1.98785e-15 -3.97569e-16 6.20706e-32 -1.98785e-15 1.78906e-15 -44.0603 7.60351e-15 -2.82274e-14 4.77083e-15 1.68967e-15 5.96354e-16 -1.59028e-15 1.68967e-15 1.98785e-15 3.18055e-15 -3.47873e-15 1.39149e-15 -3.18055e-15 5.26779e-15 -5.96354e-16 -3.18055e-15 2.88238e-15 -0.0 -2.52636 6.89765 -8.89582 1.91891e-15 9.55598 1.61265e-15 -7.69151 -13.574 -14.5505 -3.97569e-16 0.0 -3.18055e-15 6.51121e-16 11.5697 -3.24652e-15 -6.11135 2.58925 16.2457 -6.07779e-16 17.1663 -3.32885e-15 2.84114 -6.18009 -6.6506 -2.98177e-16 -7.95139e-16 -0.0 -3.04646e-16 -3.34413 1.59299e-15
